<mxfile host="app.diagrams.net" modified="2024-07-20T21:10:03.445Z" agent="Mozilla/5.0 (Macintosh; Intel Mac OS X 10_15_7) AppleWebKit/537.36 (KHTML, like Gecko) Chrome/126.0.0.0 Safari/537.36" version="24.7.2" etag="xbBLhW3vOkfl31vZVmj8" type="github">
  <diagram name="PÃ¡gina-1" id="_vbzr5Kd7z9sN0g9LfQD">
    <mxGraphModel>
      <root>
        <mxCell id="0" />
        <mxCell id="1" parent="0" />
      </root>
    </mxGraphModel>
  </diagram>
</mxfile>
